# xmcd CD database file
#
# Track frame offsets:
#	150
#	18875
#	35187
#	59712
#	82050
#	100650
#	118312
#	136260
#	154950
#	178650
#	199747
#
# Disc length: 2996 seconds
#
# Revision: 0
# Processed by: cddbd v1.4PL0 Copyright (c) Steve Scherf et al.
# Submitted via: CDex 1.40PlusFr
#
DISCID=9d0bb20b
DTITLE=Som Baloy - Family Affai
DYEAR=2002
DGENRE=Blues
TTITLE0=El Latir Del Folklor
TTITLE1=Increible su Retorno
TTITLE2=Soneros de Curazao
TTITLE3=Son Para usted Padre
TTITLE4=El Pan de Juan
TTITLE5=No me Cobres a Mi
TTITLE6=Llego el Brujo
TTITLE7=El Eco de Enchemiya
TTITLE8=Luz y Horizonte
TTITLE9=Canaria, Tierra de Mis Raizes
TTITLE10=Pancho Mentira
EXTD=YEAR: 2002 ID3G: 0
EXTT0=
EXTT1=
EXTT2=
EXTT3=
EXTT4=
EXTT5=
EXTT6=
EXTT7=
EXTT8=
EXTT9=
EXTT10=
PLAYORDER=
